<svg version="1.0" xmlns="http://www.w3.org/2000/svg"
 width="1980.000000pt" height="1980.000000pt" viewBox="0 0 1980.000000 1980.000000"
 preserveAspectRatio="xMidYMid meet">

<g transform="translate(0.000000,1980.000000) scale(0.100000,-0.100000)"
fill="#000000" stroke="none">
<path d="M0 9900 l0 -9900 4950 0 4950 0 0 9900 0 9900 -4950 0 -4950 0 0
-9900z m3880 980 l0 -3740 2065 0 2065 0 0 -510 0 -510 -2595 0 -2595 0 0
4250 0 4250 530 0 530 0 0 -3740z"/>
<path d="M10607 14523 c200 -310 2599 -4053 2611 -4073 14 -24 -23 -82 -1380
-2170 -767 -1180 -1402 -2157 -1412 -2172 l-18 -28 1433 0 1434 0 784 1260
c672 1080 786 1257 796 1242 47 -69 808 -1298 1138 -1837 l404 -660 1438 -3
c1149 -2 1436 0 1432 10 -2 7 -635 989 -1406 2183 -783 1211 -1400 2176 -1398
2185 2 8 601 944 1331 2080 l1326 2065 -1367 3 c-1086 2 -1370 -1 -1379 -10
-18 -20 -743 -1177 -1159 -1850 -203 -329 -373 -594 -376 -590 -13 13 -824
1309 -1183 1890 l-349 562 -1378 0 -1379 0 57 -87z"/>
</g>
</svg>