<svg id="_01-agenda" data-name="01-agenda" xmlns="http://www.w3.org/2000/svg" viewBox="0 0 32 32"><defs><style>.cls-1{fill:none;stroke:#000;stroke-linejoin:round;stroke-width:2px;}</style></defs><title>01-agenda</title><polyline class="cls-1" points="4 5 4 1 11 1 31 1 31 31 11 31 4 31 4 27"/><path class="cls-1" d="M4,5H5A2,2,0,0,1,7,7,2,2,0,0,1,5,9H3A2,2,0,0,1,1,7a2,2,0,0,1,.59-1.41A2,2,0,0,1,3,5Z"/><path class="cls-1" d="M4,14H5a2,2,0,0,1,2,2,2,2,0,0,1-2,2H3a2,2,0,0,1-2-2,2,2,0,0,1,.59-1.41A2,2,0,0,1,3,14Z"/><path class="cls-1" d="M4,23H5a2,2,0,0,1,2,2,2,2,0,0,1-2,2H3a2,2,0,0,1-2-2,2,2,0,0,1,.59-1.41A2,2,0,0,1,3,23Z"/><line class="cls-1" x1="11" y1="1" x2="11" y2="31"/><line class="cls-1" x1="4" y1="9" x2="4" y2="14"/><line class="cls-1" x1="4" y1="18" x2="4" y2="23"/><line class="cls-1" x1="14" y1="23" x2="28" y2="23"/><line class="cls-1" x1="14" y1="27" x2="28" y2="27"/></svg>