<?xml version="1.0"?>
<svg xmlns="http://www.w3.org/2000/svg" viewBox="0 0 32 32">
    <path style="line-height:normal;text-indent:0;text-align:start;text-decoration-line:none;text-decoration-style:solid;text-decoration-color:#000;text-transform:none;block-progression:tb;isolation:auto;mix-blend-mode:normal" d="M 16 4 C 9.3844276 4 4 9.3844276 4 16 C 4 22.615572 9.3844276 28 16 28 C 22.615572 28 28 22.615572 28 16 C 28 9.3844276 22.615572 4 16 4 z M 16 6 C 21.534692 6 26 10.465308 26 16 C 26 21.534692 21.534692 26 16 26 C 10.465308 26 6 21.534692 6 16 C 6 10.465308 10.465308 6 16 6 z M 17 10 L 18.792969 11.792969 L 11.792969 18.792969 L 10 17 L 10 22 L 15 22 L 13.207031 20.207031 L 20.207031 13.207031 L 22 15 L 22 10 L 17 10 z" font-weight="400" font-family="sans-serif" white-space="normal" overflow="visible"/>
</svg>
